<?xml version="1.0" encoding="UTF-8"?>
<svg version="1.1" viewBox="0 0 1392 1404" width="1280" height="1280" xmlns="http://www.w3.org/2000/svg">
<path transform="translate(0)" d="m0 0h1392v1404h-1392z" fill="#FCFCFC"/>
<path transform="translate(687,74)" d="m0 0h6l6 4 5 8 3 11 7-2h8l12 6 7 6v2l-23 4-13 5-7 6 2 9 7 16 8 16 10 16 6 8v2h2l2-11 7-20-1-4-3-4-1-7 3-6 6-5 6-1 7 3 4 5 1 2v9l-2 2 1 5 3 4h3l5-7-2-6v-7l4-6 9-4 8 2 5 6 1 2v8l-4 6-7 4h-3v7l1 5v7l20-20 11-9 10-9 5-3-1-10 3-6 4-4 3-1h8l6 4 2 4v10l-4 6-3 2-7 1-2-1-2 6-15 28-14 27-10 19-15 28-1 3 9 3 28 11 27 11 47 16 38 13 35 10 35 9 48 10 40 6 36 4 36 2 1 1-1 12-9 56-12 71-18 99-8 41-12 57-11 48-9 36-15 53-12 38-11 31-11 28-13 30-12 25-8 17-13 23-11 18-16 24-12 16-10 13-9 11-12 14-14 15-14 14 20-2 45-6 77-12 34-7 70-16 33-9h4v44l2 32 4 32 5 29 8 35 4 13v5l-38 10-42 11-62 14-75 15-48 8-64 8-54 5-43 3-47 2-36 1h-19l-59-2-54-3-52-5-44-6-72-11-28-5-51-11-50-12-47-12-39-10-1-2 7-25 7-31 5-32 3-26 1-17 1-58 48 13 76 17 28 5 88 14 43 5h5l-9-9-7-8-9-9-7-8-12-14-14-18-13-18-14-21-9-15-12-21-12-23-8-16-11-24-13-33-9-24-12-35-12-40-13-49-13-53-14-66-14-73-16-91-13-78-7-43v-2l7-1 28-2 38-4 28-4 41-8 46-11 42-12 40-13 47-17 17-6 39-16 9-4h2l-15-28-20-39-13-23-9-17-3-1-8-1-7-8v-10l6-7 8-2 7 3 4 5 2 7-1 6 14 11 14 12 16 16v2h2l3-13-8-6-3-4v-9l3-6 6-4 5-1 8 3 5 8-1 9-1 7 6-2 5-6-2-4-4-6v-8l4-6 5-3h9l7 6 2 9-2 5-4 4 3 10 7 22 1 7 4-4 12-18 12-23 8-20-5-5-14-7-11-3-14-2 2-4 9-6 8-4h8l8 2 2-10 5-8 4-4z" fill="#39505A"/>
<path transform="translate(687,74)" d="m0 0h6l6 4 5 8 3 11 7-2h8l12 6 7 6v2l-23 4-13 5-7 6 2 9 7 16 8 16 10 16 6 8v2h2l2-11 7-20-1-4-3-4-1-7 3-6 6-5 6-1 7 3 4 5 1 2v9l-2 2 1 5 3 4h3l5-7-2-6v-7l4-6 9-4 8 2 5 6 1 2v8l-4 6-7 4h-3v7l1 5v7l20-20 11-9 10-9 5-3-1-10 3-6 4-4 3-1h8l6 4 2 4v10l-4 6-3 2-7 1-2-1-2 6-15 28-14 27-10 19-15 28-1 3 9 3 28 11 27 11 47 16 38 13 35 10 35 9 48 10 40 6 36 4 36 2 1 1-1 12-9 56-12 71-18 99-8 41-12 57-11 48-9 36-15 53-12 38-11 31-11 28-13 30-12 25-8 17-13 23-11 18-16 24-12 16-10 13-9 11-12 14-14 15-14 14 20-2 45-6 77-12 34-7 70-16 33-9h4v44l2 32 4 32 5 29 8 35 4 13v5l-38 10-42 11-62 14-75 15-48 8-64 8-54 5-43 3-47 2-36 1h-19l-59-2-54-3-52-5-44-6-72-11-28-5-51-11-50-12-47-12-39-10-1-2 7-25 7-31 5-32 3-26 1-17 1-58 48 13 76 17 28 5 88 14 43 5h5l-9-9-7-8-9-9-7-8-12-14-14-18-13-18-14-21-9-15-12-21-12-23-8-16-11-24-13-33-9-24-12-35-12-40-13-49-13-53-14-66-14-73-16-91-13-78-7-43v-2l7-1 28-2 38-4 28-4 41-8 46-11 42-12 40-13 47-17 17-6 39-16 9-4h2l-15-28-20-39-13-23-9-17-3-1-8-1-7-8v-10l6-7 8-2 7 3 4 5 2 7-1 6 14 11 14 12 16 16v2h2l3-13-8-6-3-4v-9l3-6 6-4 5-1 8 3 5 8-1 9-1 7 6-2 5-6-2-4-4-6v-8l4-6 5-3h9l7 6 2 9-2 5-4 4 3 10 7 22 1 7 4-4 12-18 12-23 8-20-5-5-14-7-11-3-14-2 2-4 9-6 8-4h8l8 2 2-10 5-8 4-4zm-3 200-32 16-65 28-29 11-43 16-36 12-29 9-42 11-34 7-49 8-29 3-28 2 1 14 7 45 14 83 16 88 10 49 11 49 16 64 14 47 14 41 12 29 13 30 8 17 12 22 10 18 14 22 8 11 12 16 9 11 12 14 9 10 14 15 13 12 9 9 8 7 15 13 16 12 10 6 7 1 81 2h44l85-2 10-2 14-10 17-13 12-11 8-7 12-11 22-22 7-8 9-11 13-16 14-19 11-17 17-28 12-23 8-16 13-29 11-27 10-27 13-41 13-46 9-35 16-70 11-57 13-71 9-52 10-61 2-16v-9l-48-4-36-5-47-9-23-5-38-11-53-17-47-17-22-9-30-13-26-11-41-19-6-3z" fill="#010101"/>
<path transform="translate(688,274)" d="m0 0 5 1 23 11 36 16 30 13 24 10 35 13 40 14 45 14 28 8 12 3 31 6 33 6 30 4 48 4v9l-4 28-11 67-16 89-13 68-10 45-3 12h-2l-2 13-4 14-7 2-10 1-58 1-84 1h-102l-92-1-1-1-1-8-1-144v-49z" fill="#35646C"/>
<path transform="translate(440,745)" d="m0 0h231l13 1 4 2 1 32v355l-1 17-4 1-102-1-9-2-12-8-14-11-15-13-15-14-8-8-8-7-16-17-13-15-14-17-8-11-16-23-13-22-12-22-15-30-17-40-9-24-13-38-15-52-5-20v-9l3-2 21-1h42z" fill="#35646C"/>
<path transform="translate(769,490)" d="m0 0 18 1 15 3 13 5 17 10 12 11 13 13h2l9-11 11-10 14-9 14-7 12-4 15-2h12l2 2 1 4v20l14 3 5 2v144l-3 1-20-4-8-1h-25l-18 3-18 6-16 8-3 1-23-11-19-5-16-2h-23l-19 4h-9v-142l7-4 7-2h5v-25z" fill="#FBFBFB"/>
<path transform="translate(1285,932)" d="m0 0h2l-3 9-20 50-11 27-4 9v4l35 13 37 14 22 9 3 3-9 3-43 13-80 22-22 6h-3l1-19v-23l-17-16-13-11-19-13-16-8-24-10-28-9-12-3 1-2 22-7 31-8 40-12 31-9 44-14 36-12z" fill="#020202"/>
<path transform="translate(84,932)" d="m0 0 10 3 102 33 35 10 30 9 34 9 12 5-1 2-17 4-29 10-26 12-15 9-14 11-20 18-5 5v42l-9-2-80-22-41-12-19-6-7-2 3-3 44-17 42-16 9-4-2-6-17-42-19-47z" fill="#020102"/>
<path transform="translate(816,852)" d="m0 0 7 2 8 7 6 12 4 12 11-2 10-2h11l8 4 3 4 1 3v7l-4 10-7 11-9 11-1 4h2l7 8 9 11v2l4 2 2 3-1 6-4 10-6 5-3 1h-15l-18-4-5 15-7 11-7 6-2 1-9-1-7-6-5-9-6-16v-2l-18 5-9 4-14-8-3-5v-10l4-9 7-11 12-13 12-11 3-3 3-15 1-10-21-6h-8l-6 3-2 2v8l6 14v2l-4-1-5-8-2-6v-9l4-6 7-4h9l15 3 10 3 1-9 2-8-2-5 4-5 10-5z" fill="#FCFCFC"/>
<path transform="translate(535,459)" d="m0 0 4 2 8 8 11 15 9 16 7 18 3 15 1 8v11l-4 20-5 12-2 6 10-8 7-9 2 1-5 13-9 16-9 12-18 18-13 8-1 2 16-7 3 1-5 5-5 4-15 9-15 7-33 11-9 6-5 8-2 9-1 9-3-1-3-11v-9l3-10 7-9 14-13 19-14 16-13 10-9 8-7 11-13 5-7 3-7v-3l-6 11-10 11-4 5-8 7-11 9-15 10-17 11-11 7h-3v-10l3-17 6-11 14-14 9-11 8-9 11-17 3-5 3-10h2l3 7 1 12h3l4-20 4-23 2-17v-14l-2-18z" fill="#FCFCFC"/>
<path transform="translate(568,864)" d="m0 0h7l24 12 12 7 16 8 25 13 12 7v3l-22 12-5 3v46l1 4 6 2 3 4v5l-5 1-9-4-5-6-1-5-1-41-44 22-8 5-6-2-31-16-22-12-29-15-6-4 2-4 16-8 31-16 22-12z" fill="#FCFCFC"/>
<path transform="translate(1028,1011)" d="m0 0 25 5 24 6 28 10 25 12 22 14 10 9 4 4-1 3-52 13-48 11-32 7-7 1v-42l1-52z" fill="#020203"/>
<path transform="translate(336,1012)" d="m0 0h6l1 55v39l-26-5-47-11-42-10-24-6 1-4 10-10 21-14 15-8 16-7 19-7 17-5 28-6z" fill="#020202"/>
<path transform="translate(949,527)" d="m0 0 10 1 1 1 1 7v118l-4 1-13-2h-35l-17 3-14 4-4-1 12-10 17-11 23-9 22-1v-79z" fill="#35656D"/>
<path transform="translate(528,952)" d="m0 0 19 9 22 11h6l38-19h3v23l-9 8-28 15-5 2-7-1-29-12-8-7-2-5z" fill="#FCFCFC"/>
<path transform="translate(761,527)" d="m0 0h6l1 102 21 3 15 4 16 8 13 9 5 4-1 2-25-6-21-2-20 1-12 3h-3v-126z" fill="#35646C"/>
<path transform="translate(1026,1201)" d="m0 0 9 1 6 4 5 9 1 3v11l-3 8-8 7-5 2h-12l-5-3-6-7-2-6v-13l5-10 8-5z" fill="#FCFCFC"/>
<path transform="translate(602,1230)" d="m0 0 10 1 8 5 4 9v13l-5 10-8 6-4 1h-9l-7-3-6-7-2-5v-12l4-9 4-5 5-3z" fill="#FCFCFC"/>
<path transform="translate(307,1195)" d="m0 0h14l8 4 4 5 1 3v14l-5 10-7 6-5 2h-7l-9-3-5-4-4-11 1-9 4-9 5-5z" fill="#FCFCFC"/>
<path transform="translate(414,1213)" d="m0 0h11l7 3 6 7 1 3v14l-5 10-8 6-3 1h-12l-7-4-4-5-2-5-1-7 2-9 5-8 5-4z" fill="#FCFCFC"/>
<path transform="translate(1072,1192)" d="m0 0h11l6 3 5 6 3 8v12l-4 8-6 5-4 2-10 1-6-2-7-6-4-10v-10l3-8 8-7z" fill="#FCFCFC"/>
<path transform="translate(248,1180)" d="m0 0 11 2 13 3 7 4 4 6 1 3v12l-4 8-8 7-4 2h-12l-18-5 2-4 3-1 4-15 3-13-1-5z" fill="#FCFCFC"/>
<path transform="translate(859,886)" d="m0 0h15l5 3 2 8-3 9-7 11-10 11-5-1-10-9-3-16-1-11 7-3z" fill="#39515B"/>
<path transform="translate(774,935)" d="m0 0 3 1 1 3 10 8 2 9 2 18-16 5-4-1-3-4-5 1-6 4-6-6 1-10 6-11 9-11z" fill="#39525B"/>
<path transform="translate(857,937)" d="m0 0 4 1 8 7 8 11-1 10 4 4-1 6-5 3h-17l-13-4-2-4 3-23 5-5z" fill="#39515B"/>
<path transform="translate(813,913)" d="m0 0h9l7 4 4 5 2 4v12l-5 9-5 3h-16l-5-3-5-9-1-8 3-8 5-6z" fill="#FCFCFC"/>
<path transform="translate(453,1217)" d="m0 0 22 3 8 4 3 5-1 8-5 5-3 2 1 6 6 10 3 2v3h-9l-4-2-4-9-4-8-4-1v7l4 10h-11l-8-1 2-5 3-3 3-21v-7l-2-4z" fill="#FCFCFC"/>
<path transform="translate(529,1226)" d="m0 0 14 1 4 4 10 20 4 4v-20l-3-4 1-3 15 1-1 5-2 3-5 36-4 1-6-5-10-19-5-8-1 20 4 6v3l-14-1-2-1 2-5 2-6 2-19v-7l-5-4z" fill="#FCFCFC"/>
<path transform="translate(813,967)" d="m0 0 9 1 12 6 2 2-1 9-8 16-7 6h-7l-5-4-6-10-5-13 1-5z" fill="#39515B"/>
<path transform="translate(348,1201)" d="m0 0 8 1 6 2 3 5 9 22 1 1 3-13v-7l-2-3v-3l15 2 1 2-4 6-6 25-3 10-4 1-6-8-9-21-2-4-2-1v12l-2 9 4 3v4l-11-1-6-2v-2l4-3 3-10 3-12v-8l-3-4z" fill="#FCFCFC"/>
<path transform="translate(814,857)" d="m0 0h6l7 6 7 14 2 7-1 5-17 9-6-2-14-6-1-3 4-13 6-4 1-9z" fill="#39515B"/>
<path transform="translate(653,1233)" d="m0 0h18l-2 5-2 4v9h15v-11l-4-5v-2h18l1 2-4 7-1 12v15l5 5v2h-21l6-8v-10l-16-1v11l1 3 4 3v2h-19l1-4 3-1v-31l-3-5z" fill="#FCFCFC"/>
<path transform="translate(824,1228)" d="m0 0h7v3l-2 2v31l3 3 3 2v2l-20 1 1-4h2l1-3v-11h-9l-7 1v8l1 5 4 2v3l-18 1 1-4 2-3v-15l-1-14-4-4 1-4h17l-3 6-1 12 16-1v-7l-1-7-4-2v-2z" fill="#FCFCFC"/>
<path transform="translate(988,1208)" d="m0 0h4l-1 5-1 7 2 20 2 6 4 3v2l-11 2h-7l1-4 2-2-1-11h-8l-7 1-1 2 2 9 1 3 5 2-1 2-12 2h-7l3-5v-10l-3-22-4-2-1-3 17-3 2 2-3 3v13l16-1-2-11-5-7 12-2z" fill="#FCFCFC"/>
<path transform="translate(814,904)" d="m0 0 6 1 12 7 7 5 2 3v23l-3 5-15 11-2 1h-7l-13-8-8-7-1-4v-21l4-4 13-9zm-1 9-8 4-5 6-2 10 3 9 4 6 4 2h16l6-4 4-8v-12l-5-8-5-4-3-1z" fill="#39535D"/>
<path transform="translate(753,1232)" d="m0 0h21l1 3-1 12-5-2-5-6h-9l-5 5-1 3v11l4 9 4 2 8-1 2-4-1-4-4-2-1-5 14-1v19l-2 3-3 1h-21l-6-5-4-7-1-4v-10l4-9 8-7z" fill="#FCFCFC"/>
<path transform="translate(878,1223)" d="m0 0h10l2 2v12l-5-1-2-6h-7l-3 1-1 5 5 4 9 4 6 4 2 4v6l-6 7-8 3h-12l-3-1-1-2v-9l1-3 4 1 3 6 3 2 6-1 2-1 1-5-4-3-12-5-5-4-1-9 4-6 7-4z" fill="#FCFCFC"/>
<path transform="translate(924,1217)" d="m0 0h12l1 2v13l-5-1-5-6h-7l-5 4-1 3v8l3 10 4 4 7 1 5-5 2-6 5 1 1 11-3 3-11 3h-10l-7-4-4-5-3-10 1-11 3-6 6-6 5-2z" fill="#FCFCFC"/>
<path transform="translate(1120,1182)" d="m0 0h3l-1 4-1 2h-2l4 23 2 7h6l4-4 1-8h4l3 10v5l-4 2-26 5-1-2 3-4-3-17-4-13-4-5 1-2z" fill="#FCFCFC"/>
<path transform="translate(603,1236)" d="m0 0 7 2 3 5 1 5v11l-3 7-5 3h-6l-5-4-2-6v-12l3-7 3-3z" fill="#06090A"/>
<path transform="translate(313,1200)" d="m0 0 6 1 4 4 1 3v10l-3 10-6 5-8-1-4-5v-15l3-7 4-4z" fill="#060809"/>
<path transform="translate(416,1219)" d="m0 0h6l5 4 2 6v9l-3 9-5 4-5 1-5-3-3-5v-14l3-7z" fill="#050708"/>
<path transform="translate(1022,1208)" d="m0 0h6l5 4 3 5 1 5v12l-4 5-2 1h-7l-6-7-3-10 1-10z" fill="#050708"/>
<path transform="translate(1070,1199)" d="m0 0h9l5 5 3 7 1 11-3 6-5 3-6-1-6-6-2-7v-13z" fill="#050707"/>
<path transform="translate(261,1189)" d="m0 0 7 1 5 5 1 3v8l-3 9-4 5-4 2-7-1-3-2v-6l7-23z" fill="#07090A"/>
<path transform="translate(709,1232)" d="m0 0h18l-1 5-2 5-1 22 2 7 3 3v2h-20l2-4h2l1-5v-21l-2-8-2-3z" fill="#FCFCFC"/>
<path transform="translate(501,1223)" d="m0 0 18 2-1 4-3 3-4 24 1 7 4 4-1 1-19-1 1-4 3-3 2-10 1-9v-12l-3-3z" fill="#FCFCFC"/>
<path transform="translate(666,1257)" d="m0 0h16l1 1v10l-7 8-3 1-7-6-1-3v-8z" fill="#0A0E10"/>
<path transform="translate(810,1253)" d="m0 0h9l1 1v11l-2 3h-2l-1 4-7 1-2-4-3-3-1-3v-8l1-1z" fill="#0A0E10"/>
<path transform="translate(550,577)" d="m0 0h1l-1 7-3 6-9 12-11 12-11 10-11 9-5 1 2-5 1-3 12-8 13-12 12-12 7-11z" fill="#162125"/>
<path transform="translate(838,952)" d="m0 0 3 1-2 18-2 1-14-7v-3l10-7z" fill="#38555E"/>
<path transform="translate(793,951)" d="m0 0 11 7 8 5-4 4-8 4h-4l-3-14z" fill="#38545E"/>
<path transform="translate(795,894)" d="m0 0 6 1 10 5-1 3-14 9-3 1 1-14z" fill="#38545E"/>
<path transform="translate(836,893)" d="m0 0 3 3 1 8v9l-11-7-7-4v-2z" fill="#366068"/>
<path transform="translate(467,1225)" d="m0 0 7 1 2 3v8l-5 4-6-1-2-3 1-8z" fill="#090D0F"/>
<path transform="translate(845,923)" d="m0 0 8 6 3 5-8 6h-3z" fill="#39525C"/>
<path transform="translate(786,924)" d="m0 0 2 1v16l-5-3-7-3 2-4z" fill="#324D55"/>
<path transform="translate(550,577)" d="m0 0h1l-1 7-3 6-8 11h-3l-3 2 2-4 8-9z" fill="#283E45"/>
<path transform="translate(838,901)" d="m0 0 2 3v9l-10-6 1-4z" fill="#38525B"/>
<path transform="translate(545,632)" d="m0 0h3l-1 5-14 6h-2l1-3z" fill="#19282C"/>
<path transform="translate(805,948)" d="m0 0 4 1h18l-1 2-6 3h-7l-8-4z" fill="#35656D"/>
<path transform="translate(845,923)" d="m0 0 6 4-4 6v5l3 1-5 1z" fill="#35636B"/>
<path transform="translate(814,909)" d="m0 0 8 3v1l-12 2-4 1 5-5z" fill="#35656D"/>
<path transform="translate(850,525)" d="m0 0 4 1v2l6 2-1 4-4-2-5-5z" fill="#38565F"/>
</svg>
