<?xml version="1.0" encoding="UTF-8"?>
<svg version="1.1" viewBox="0 0 2048 907" width="1280" height="1280" xmlns="http://www.w3.org/2000/svg">
<path transform="translate(0)" d="m0 0h2048v907h-2048z" fill="#FDFDFD"/>
<path transform="translate(1e3 30)" d="m0 0h18l12 4 10 8 7 10 4 10 1 5v12l-5 14-3 4 1 6 14 15 12 12 5 3h5l8-16 9-19-1-5-6-7-3-8v-10l3-9 6-8 10-5 3-1h10l11 4 5 4 6 10 2 7v6l-1 6 8 5 16 9h3l11-8 10-4 5-1h8l9 2 11 6 8 9 5 12 1 13-2 7v4l26 14 12 7 5-2 6-5 7-3 5-1h8l10 3 8 6 5 6 4 11 1 8-3 10-6 10 2 5 15 23 2 5 10-3h11l10 3 10 9 5 8 2 7v12l-4 10-9 10-8 4-11 2-12-2-13-6-15 12-16 11-2 3v14l-6 9-6 4-11 2-3 5-10 22-6 15v2l6 5 5 10 1 3v12l-3 9-6 8-4 4 3 10 5 12h9l16 4 4-1 11-18 8-11 7-10 4-6v-5l-7-8-6-12-1-5v-20l5-12 6-8 10-9 11-5 15-2 13 2 10 4 9 7 7 8 5 11 2 12v8l-3 14-6 10-10 10-12 6-13 2-13-1-13-4-2 5-10 15-13 19-7 10 6 9 5 10 1 5v13l-3 10-6 8-7 7-8 4-9 2h-13l-10-3-9-7-6-7-4-8-2-8v-12l4-12 7-9 8-6-3-10-4-11v-3h-13l-10-3-10-9-4-6-2-6v-11l4-10 7-9 10-6 3-1h13l4 1 1-7 13-30 2-8-5-7-1-4v-7l3-8 7-7 6-2h9l6 3h4l11-8 14-11 7-5-2-11v-14l4-9 4-6 1-2-20-30-7 1-4 1-9-1-9-3-9-7-3-3-9 2-18 8-5 2-3 9-4 5-7 5-3 21-2 9 5 2 10 9 4 9v13l-3 7-4 6-9 6-5 2h-10l-9-3-6-4-4-5-8 1-25 9-6 4-4 10-7 3-8 2-10 19-7 12-1 7 3 3 13-1 26-5 14-2 3-2 2-5 4-5 4-2h8l6 2 5 8 1 6-4 8-9 6-6 28-9 43v5l11 7 9 9 5 8 3 11v12l-4 13-7 11-10 8-12 5-9 1-3 2-5 30v7l6 7 2 5v9l-3 6-7 5-1 2-1 28 4 2 4 5 1 8-3 5-7 3-10-1-4-3-2-11-5-6-13-10-4-1-6 3-8-2-7-6-3-7v-7l4-9 5-5 1-3h-2l-1-11v-2l-12-2-10-6-8-9-2-4-1-6v-12l4-9 7-8 9-6 3-1h13l11 4 4 2 5-1 6-4-2-9-3-10 1-18 4-11-10-8-15-11-3-2-5 1-7 1-2-2h-6l-9 6-7 5 4 15v16l-4 11-8 10-7 6-9 5-5 1h-21l-12-5-10-9-7-11-3-6-13 1-15 3-3 2-3 9-7 9-8 5-10 3-12-3-9-6-6-7-4-11 2-12 4-8 7-7 6-3 5-1h14l7-15 11-22 9-17 7-15-9-9-6-12-2-5-1-1h-17l-10 1-4 5-5 3h-6l-6 5-8 11-9 10 1 5 6 10 3 8v14l-4 11-7 9-8 7-11 4-11 1-15-4-9-6-6-7-7-12-13 1-10 3-7 14-9 9-6 3-11 1-9-3-9-6-6-9-2-5v-11l4-10 6-7 9-5 8-2v-11l1-17-7-10-1-7 3-7 6-5 10-1 5-5 9-10 10-13 8-9 11-14 10-14 1-5-1-7 2-3v-7l-6-10-6-1-13 1-5-1-9-2-7 8-10 14-11 16-3 4 3 10 1 3v7l-5 9-5 5-10 4h-9l-10 16-11 18-9 15-2 3 1 4 6 9 4 10v11l-5 13-10 10-13 6h-13l-12-5-8-6-6-10-3-11 1-11 6-12 8-8 9-5v-13l-11-4-10-5-5-4-6-9-2-7v-11l3-10 6-8 8-6 6-2 9-1 1-12-4-3-10-5-11-10-7-12-2-7v-19l3-12 7-11 7-7 14-7 8-2h13l11 3 9 5 10 9 6 10 3 6 11-1 32-5 3-1 1-10 4-10-11-8-17-12-7-3-9 4h-9l-9-4-6-7-2-4v-13l4-8 8-6 3-1h12l8 4 6 8 2 7v6l-1 4 7 6 24 16 5 1 7-6 9-3v-30l-1-6-10-5-7-8-4-9v-12l5-10 9-8 9-3h8l9 2 10 8 16-8 23-12 3-2v-18l4-9 7-8 6-4 10-3h9l10 3 8 6 6 9 3 9v10l-5 13-9 8 1 6 8 20 4 9 4 1h9l7 2h5l11-14 13-16 6-6-2-5-6-9-4-13v-8l3-12 5-9 9-10 10-6z" fill="#343431"/>
<path transform="translate(1e3 30)" d="m0 0h18l12 4 10 8 7 10 4 10 1 5v12l-5 14-3 4 1 6 14 15 12 12 5 3h5l8-16 9-19-1-5-6-7-3-8v-10l3-9 6-8 10-5 3-1h10l11 4 5 4 6 10 2 7v6l-1 6 8 5 16 9h3l11-8 10-4 5-1h8l9 2 11 6 8 9 5 12 1 13-2 7v4l26 14 12 7 5-2 6-5 7-3 5-1h8l10 3 8 6 5 6 4 11 1 8-3 10-6 10 2 5 15 23 2 5 10-3h11l10 3 10 9 5 8 2 7v12l-4 10-9 10-8 4-11 2-12-2-13-6-15 12-16 11-2 3v14l-6 9-6 4-11 2-3 5-10 22-6 15v2l6 5 5 10 1 3v12l-3 9-6 8-4 4 3 10 5 12h9l16 4 4-1 11-18 8-11 7-10 4-6v-5l-7-8-6-12-1-5v-20l5-12 6-8 10-9 11-5 15-2 13 2 10 4 9 7 7 8 5 11 2 12v8l-3 14-6 10-10 10-12 6-13 2-13-1-13-4-2 5-10 15-13 19-7 10 6 9 5 10 1 5v13l-3 10-6 8-7 7-8 4-9 2h-13l-10-3-9-7-6-7-4-8-2-8v-12l4-12 7-9 8-6-3-10-4-11v-3h-13l-10-3-10-9-4-6-2-6v-11l4-10 7-9 10-6 3-1h13l4 1 1-7 13-30 2-8-5-7-1-4v-7l3-8 7-7 6-2h9l6 3h4l11-8 14-11 7-5-2-11v-14l4-9 4-6 1-2-20-30-7 1-4 1-9-1-9-3-9-7-3-3-9 2-18 8-5 2-3 9-4 5-7 5-3 21-2 9 5 2 10 9 4 9v13l-3 7-4 6-9 6-5 2h-10l-9-3-6-4-4-5-8 1-25 9-6 4-4 10-7 3-8 2-10 19-7 12-1 7 3 3 13-1 26-5 14-2 3-2 2-5 4-5 4-2h8l6 2 5 8 1 6-4 8-9 6-3 14h-2l-1 8-3-1v2l-4 1-1-1v-7l3-19-2-5-26 4-29 6h-2l-2 10-5 8-7 4-4 1h-9l-7-3-7-6-4-11 1-8 4-9 5-4 5-3 15-1 8-16 9-16-1-9-1-1 1-8 3-5 7-4h9l4 3h8l13-5 17-6h3v-11l4-11 4-5 14-7 5-1 3-30-6-8-1-3v-9l5-9-2-10-7-24-4-2-10-1-13-5-6-5-9-13-3-9v-11l2-9-9-6-15-9-4 1-5 4-7 3-16 1-3 10-11 24-1 4 3 4 1 9-1 3 9 12 10 11 3 4v2l6-1 7-3 8-2 8 1 10 3 9 5 7 7 5 10 2 6v12l-4 13-7 9-10 7-8 3h-19l-10-4-4 2-11 12-10 13-10 11 5 15-1 13-4 7-4 5-10 5-13 1-10-3-9-8-4-10-2-13-9-3-15-6-9-1-4 2h-8l-6-2-5-6h-23l-5 16-6 9-8 7-11 6-16 2-11-1-12-6-10-9-6-10-3-11v-11l3-12 4-8 9-10 10-6 6-2 14-2 4-26 9 1 1-2-2 16-2 10v4l12 6 10 9 7 13 3 7 23-1 6-7 4-2h9l6 4 6 11 8 4 14 5 5 3 5-1 7-7 6-3 4-1h11l10 3 8-10 11-12 11-14 2-1-2-6-5-11-1-6v-11l2-8 5-9-1-6-9-10-7-8-4-5-5-2h-6l-4 2-5 6-1-2-7 3-3-1 2-4 6-8 1-5-2-3 1-6v-3l-6-8-15-16-6-7-6-3-12 6-11 2-9-1-10-3-4-2-4 1-8 10-11 13-9 11-2 4-1 4-4 1-5-3-8-8-2-4 14 1 11-14 13-16 6-6-2-5-6-9-4-13v-8l3-12 5-9 9-10 10-6z" fill="#A46A31"/>
<path transform="translate(1136,91)" d="m0 0 5 1 13 8 9 6 1 4-2 6v11l4 11 10 13 12 6 11 2 6 1 2 2 9 31-1 5-4 7v9l4 7 3 4-3 30-9 3-9 5h-2l-6 12-1 10-1 5-20 7-13 5h-8l-4-3h-9l-8 5-2 6v5l2 4v6l-13 24-4 8-1 1-15 1-9 6-4 9-1 8 4 11 7 6 6 2h9l8-3 5-5 4-11 1-3 13-3 29-6 6-1h9l3 5-3 19-8 37-4 20-20 4-10 5-6 5-7-4-16-13-6-4-2-3v-8l-2-6-7-2h-10l-6 4-2 4v8l-7 6-10 7-4-1-11-8-8-3-6-1h-14l-10 3-11 7-7 8-6 13-2 12-7 2-24 2-5-5-6-7-1-4 12-22 18-36 4-10 13 1 11-2 10-5 7-7 5-9 2-9-1-11-4-11-6-8-8-5-9-3h-15l-11 4-9 7-6 10-3 8h-22l-7-3-7-6h-12l-4 1-3 10 1 10-20 26-4 2-7-3-5-1h-15l-11 5-9 7-7 11-2 6-1 10-1 1-25 1-8-10-6-5-7-4v-8l3-23 8-6 2-4-1-11 10-14 10-12 7-9 10-12 8-10 6-7 7-3 9-3 5-6v-8l-4-6-4-3-9-4-7-14 5-5 6-7 4-8 1-4v-15l-3-10-8-11-9-6-7-3-10-2-1-4 1-29 1-2 9-4 5-4 5-9 1-4v-14l16-9 16-8 8-5 6 1 1 3 12 6 5 2 11-1 3 3 7 17 4 9 2 5-1 5-8 6-4 10-1 7 2 11 6 11 11 8 1 1-1 11-4 26-7 2-11 2-10 5-9 8-5 9-3 8-1 6v11l4 13 6 9 9 8 11 5 15 1 12-2 11-6 8-7 6-10 4-14 1-1h23l5 5v2l6 1h8l4-2 9 1 20 8 4 2 3 13 4 10 8 7 10 3 13-1 10-5 6-8 2-10-1-10-4-9 2-4 10-11 10-13 11-12 3-1 10 4h19l10-4 10-8 5-9 3-10v-12l-5-13-9-10-10-5-12-3-8 1-10 3-4 2-3-1-7-9-9-10-7-10 1-9-3-6-1-4 7-15 6-13 3-7 7-1 12-2 8-5z" fill="#FDFDFD"/>
<path transform="translate(973,333)" d="m0 0h15l11 4 9 7 5 8 3 9 1 11-3 11-6 9-7 7-12 5-9 1-12-2-3 10-19 38-11 20 2 5 7 8v2l13-1 19-2 2-12 7-14 8-9 10-6 10-3h14l12 3 11 7 3 3 5-1 13-10 1-3 1-9 6-5 2-1h10l7 3 3 6v8l1 3 4 2 13 10 11 8 5-3 9-6 12-3 11-1 2-14 8-39 3 3h3v-2h2l2-7h1l-1 10-10 47v5l11 7 9 9 5 8 3 11v12l-4 13-7 11-10 8-12 5-9 1-3 2-5 30v7l6 7 2 5v9l-3 6-7 5-1 2-1 28 4 2 4 5 1 8-3 5-7 3-10-1-4-3-2-11-5-6-13-10-4-1-6 3-8-2-7-6-3-7v-7l4-9 5-5 1-3h-2l-1-11v-2l-12-2-10-6-8-9-2-4-1-6v-12l4-9 7-8 9-6 3-1h13l11 4 4 2 5-1 6-4-2-9-3-10 1-18 4-11-10-8-15-11-3-2-5 1-7 1-2-2h-6l-9 6-7 5 4 15v16l-4 11-8 10-7 6-9 5-5 1h-21l-12-5-10-9-7-11-3-6-13 1-15 3-3 2-3 9-7 9-8 5-10 3-12-3-9-6-6-7-4-11 2-12 4-8 7-7 6-3 5-1h14l7-15 11-22 9-17 7-15-9-9-6-12-2-5-1-1h-17l-10 1-4 5-5 3h-6l-6 5-8 11-9 10 1 5 6 10 3 8v14l-4 11-7 9-8 7-11 4-11 1-15-4-9-6-6-7-7-12-13 1-10 3-7 14-9 9-6 3-11 1-9-3-9-6-6-9-2-5v-11l4-10 6-7 9-5 8-2v-11l1-17-2-4 4 2 8 1-1 15-1 7v8l10 6 9 10 1 2 25-1 2-13 5-10 7-8 7-5 10-4h15l10 3 4 1 10-12 8-11 3-4-1-10 2-7 4-4 2-1h12l10 8 4 1 22 1 3-10 6-9 9-7z" fill="#734F2D"/>
<path transform="translate(1e3 30)" d="m0 0h18l12 4 10 8 7 10 4 10 1 5v12l-5 14-3 4 1 6 14 15 12 12 5 3h5l8-16 9-19-1-5-6-7-3-8v-10l3-9 6-8 10-5 3-1h10l11 4 5 4 6 10 2 7v6l-1 6 8 5 16 9h3l11-8 10-4 5-1h8l9 2 11 6 8 9 5 12 1 13-2 7v4l26 14 11 7-1 8-3 1-20-11-17-9-4 1-8 7-5 3-2 10-2-3-1 5h-2l-3-8-13-2-13-5-6-5-9-13-3-9v-11l2-9-9-6-15-9-4 1-5 4-7 3-16 1-3 10-11 24-1 4 3 4 1 9-1 3 9 12 10 11 3 4v2l6-1 7-3 8-2 8 1 10 3 9 5 7 7 5 10 2 6v12l-4 13-7 9-10 7-8 3h-19l-10-4-4 2-11 12-10 13-10 11 5 15-1 13-4 7-4 5-10 5-13 1-10-3-9-8-4-10-2-13-9-3-15-6-9-1-4 2h-8l-6-2-5-6h-23l-5 16-6 9-8 7-11 6-16 2-11-1-12-6-10-9-6-10-3-11v-11l3-12 4-8 9-10 10-6 6-2 14-2 4-26 9 1 1-2-2 16-2 10v4l12 6 10 9 7 13 3 7 23-1 6-7 4-2h9l6 4 6 11 8 4 14 5 5 3 5-1 7-7 6-3 4-1h11l10 3 8-10 11-12 11-14 2-1-2-6-5-11-1-6v-11l2-8 5-9-1-6-9-10-7-8-4-5-5-2h-6l-4 2-5 6-1-2-7 3-3-1 2-4 6-8 1-5-2-3 1-6v-3l-6-8-15-16-6-7-6-3-12 6-11 2-9-1-10-3-4-2-4 1-8 10-11 13-9 11-2 4-1 4-4 1-5-3-8-8-2-4 14 1 11-14 13-16 6-6-2-5-6-9-4-13v-8l3-12 5-9 9-10 10-6z" fill="#09252D"/>
<path transform="translate(761,237)" d="m0 0 4 2 7 12 2 5-1 3 7-1 2-3 3-3v-10h2l3-4 10-1 7 1 4 5 2-1 2 8 2-1v2l5-1 5-5 5-6 5-1-2 6-6 8-5 4-1 3 7 13 10 4 6 7 1 2v8l-7 8-12 3-5 5-10 11-7 9-10 12-7 9-10 13-4 6 1 11-4 6-8 6-7-1-6-4-4-8 1-8 6-7 2-1 10-1 5-5 9-10 10-13 8-9 11-14 10-14 1-5-1-7 2-3v-7l-6-10-6-1-13 1-5-1-9-2-7 8-10 14-11 16-3 4 3 10 1 3v7l-5 9-5 5-10 4h-9l-10 16-11 18-9 15-2 3 1 4 6 9 4 10v11l-5 13-10 10-13 6h-13l-12-5-8-6-6-10-3-11 1-11 6-12 8-8 9-5v-13l-11-4-10-5-5-4-6-9-2-7v-11l3-10 6-8 8-6 6-2 9-1 1-12-4-3-10-5-9-8-3-7 7 1 5 2 3 2 5 2 6-2 8 1 11 4h8l-6-2-2-4-3-1-2-3-27-4-5-2-5-4-6-4-2-5v-10l-1-7 5 2 2 3v13l1 2 17 1 5 2v2l12-1 12 3 10 7-1 7h6l12-12-2 5-2 2 4-1 1 2 4-6 3-10 1-12 1-2z" fill="#52442F"/>
<path transform="translate(1187,391)" d="m0 0h1l-1 10-10 47v5l11 7 9 9 5 8 3 11v12l-4 13-7 11-10 8-12 5-9 1-3 2-5 30v7l6 7 2 5v9l-3 6-7 5-1 2-1 28 4 2 4 5 1 8-3 5-7 3-10-1-4-3-2-11-5-6-13-10-4-1-6 3-8-2-7-6-3-7v-7l4-9 5-5 1-3h-2l-1-11v-2l-12-2-10-6-8-9-2-4-1-6v-12l4-9 7-8 9-6 3-1h13l11 4 4 2 5-1 6-4-2-9-3-10 1-18 4-11-10-8-15-11-3-2-5 1-7 1-2-2h-6l-18 12-4-6 2-4 15-11 1-3 1-9 6-5 2-1h10l7 3 3 6v8l1 3 4 2 13 10 11 8 5-3 9-6 12-3 11-1 2-14 8-39 3 3h3v-2h2z" fill="#A46A31"/>
<path transform="translate(1094,155)" d="m0 0 4 4 7 9 9 10 3 4v2l6-1 7-3 8-2 8 1 10 3 9 5 7 7 5 10 2 6v12l-4 13-7 9-10 7-8 3h-19l-10-4-4 2-11 12-10 13-10 11 5 15-1 13-4 7-4 5-10 5-13 1-10-3-9-8-4-10-2-13-9-3-15-6-9-1-4 2h-8l-6-2-5-6h-23l-5 16-6 9-8 7-11 6-16 2-11-1-12-6-10-9-6-10-3-11v-11l3-12 4-8 9-10 10-6 6-2 14-2 4-26 9 1 1-2-2 16-2 10v4l12 6 10 9 7 13 3 7 23-1 6-7 4-2h9l6 4 6 11 8 4 14 5 5 3 5-1 7-7 6-3 4-1h11l10 3 8-10 11-12 11-14 2-1-2-6-5-11-1-6v-11l2-8 5-9v-5h5l-1-5-4-2-4-6v-2l-3-1-3-5-4-4-5-3-1-2 1-3z" fill="#52442F"/>
<path transform="translate(1229,145)" d="m0 0 5 1 17 9 18 10h2l2-8 4-1 8-6 7-3 5-1h8l10 3 8 6 5 6 4 11 1 8-3 10-6 10h-2v-2l-6 5-12-2-17-3-6-1v3l1 2-4-2-4-4-9 2-18 8-5 2-3 9-4 5-7 5-3 21-2 9 5 2 10 9 4 9v13l-3 7-4 6-9 6-5 2h-10l-9-3-6-4-4-5-8 1-25 9-6 4-4 10-7 3-8 2-10 19-7 12-1 7 3 3 13-1 26-5 14-2 3-2 2-5 4-5 4-2h8l6 2 5 8 1 6-4 8-9 6-3 14h-2l-1 8-3-1v2l-4 1-1-1v-7l3-19-2-5-26 4-29 6h-2l-2 10-5 8-7 4-4 1h-9l-7-3-7-6-4-11 1-8 4-9 5-4 5-3 15-1 8-16 9-16-1-9-1-1 1-8 3-5 7-4h9l4 3h8l13-5 17-6h3v-11l4-11 4-5 14-7 5-1 3-30-6-8-1-3v-9l5-9-2-10-4-14 1-9 2 1 3-8 10-7z" fill="#52442F"/>
<path transform="translate(720,737)" d="m0 0h20l12 3 12 6 10 8 8 10 7 14 2 8v23l-4 16-7 12-11 12-10 7-12 5-17 3-14-1-14-4-11-6-10-9-7-10-4-8-3-10-1-7v-11l3-16 5-12 7-11 9-9 13-8 12-4z" fill="#374B64"/>
<path transform="translate(554,737)" d="m0 0h17l13 3 14 7 12 11 8 13 4 10 2 13-1 17-5 16-7 12-13 13-10 6-16 5h-24l-9-2-14-7-10-8-8-11-5-10-3-11v-22l4-15 6-12 8-10 11-9 13-6z" fill="#374B64"/>
<path transform="translate(1078,162)" d="m0 0h7l6 4 9 10 9 11 2 3-1 6-5 9-1 6v11l2 9 6 12-1 3-5 5-11 13-7 8-9 11-10-3h-11l-8 3-8 7-2 2-6-1-9-4-15-6-3-3-5-10-5-3h-9l-5 3-5 6-23 1-3-4-4-10-6-9-8-7-12-6 1-10 3-17 2-11 6-2 10-4 6-4 7-6 26 11 17 7v10l2 10 5 8 7 7 6 3 5 1h13l11-4 8-7 4-8 1-3v-17l-7-14 1-3 4-4 11-14 5-5z" fill="#FDFDFD"/>
<path transform="translate(711,146)" d="m0 0h12l8 4 6 8 2 7v6l-1 4 7 6 24 16 5 1 7-6 9-3v-35h7l4 1v31l13 3 9 5 7 6 6 9 3 10v15l-1 4-7 3-6 7h-2l-1 3h-7l-2-5-2 1-3-7-3-2h-9l-7 2-3 4v8l-6 7-7 1-2-1 2-5-8-13-2-3-29 5-11 2h-6l-1 14-3 10-4 7-3-2-4 1 2-4-9 9h-6l-1-4 1-4-11-7-10-2h-12l-1-2-4-1-17-1-2-3v-13l-2-3-3-1 1 11 1 8 4 4 6 4 2 2 23 4 8 1 8 9 6 1-2 2h-7l-15-5-7 1-4 1v-2h-5l-5-3-7-2 1 3-1 2-7-11-3-9v-19l3-12 7-11 7-7 14-7 8-2h13l11 3 9 5 10 9 6 10 3 6 11-1 32-5 3-1 1-10 4-10-11-8-17-12-7-3-9 4h-9l-9-4-6-7-2-4v-13l4-8 8-6z" fill="#343431"/>
<path transform="translate(961,399)" d="m0 0 1 2-1 7h5l-3 9-17 34-11 20 2 5 7 8v2l13-1 19-2 2-12 7-14 8-9 10-6 10-3h14l12 3 11 7 5 5 2 5 1 3h2l4 14v16l-4 11-8 10-7 6-9 5-5 1h-21l-12-5-10-9-7-11-3-6-13 1-15 3-3 2-3 9-7 9-8 5-10 3-12-3-9-6-6-7-4-11 2-12 4-8 7-7 6-3 5-1h14l7-15 11-22 9-17 7-14z" fill="#A46A31"/>
<path transform="translate(1035,739)" d="m0 0h23l4 5 13 23 9 15 4 6v2l3-3 8-15 18-32 2-1h25v121l-1 1h-23l-1-74-1-3-5 8-13 24-9 16-5-4-14-23-8-13-3-5-1 3-1 72h-19l-5-1z" fill="#364B64"/>
<path transform="translate(1085,518)" d="m0 0h13l11 4 7 3v2l-2 1-10 1-7 3h-8v2h2l2 6-5 4 1 7 2 2v2h-2l2 6 9 6h5l2-5 3-3 4-6 2-6v-7l2-2 2-4 8-7 1-2h-2v-2l8-1 14 9 4 3 18-1 4 3-12 2-3 2-5 30v7l6 7 2 5v9l-3 6-7 5-1 2-1 28 4 2 4 5 1 8-3 5-7 3-10-1-4-3-2-11-5-6-13-10-4-1-6 3-8-2-7-6-3-7v-7l4-9 5-5 1-3h-2l-1-11v-2l-12-2-10-6-8-9-2-4-1-6v-12l4-9 7-8 9-6z" fill="#E08D42"/>
<path transform="translate(1909,737)" d="m0 0h33l15 3 12 6 7 7 5 12 1 4v14l-4 10-9 10-6 4 2 6 16 34 7 13v2h-28l-6-13-11-25-4-8-2-1h-12l-1 46h-24v-122l1-1z" fill="#374B64"/>
<path transform="translate(1674,737)" d="m0 0h20l14 3 10 5 1 5-1 21-5-2-12-6-11-2h-10l-10 2-8 4-7 6-5 7-4 11-1 16 2 10 5 10 5 6 8 5 7 2h12l10-3 6-4 2-4 1-13-2-4-21-1v-23h48l-1 4-1 43-3 8-9 10-10 6-12 4-8 1h-11l-12-2-13-5-11-8-8-9-8-16-2-8-1-14 2-16 4-12 7-12 9-10 8-6 12-6z" fill="#364B64"/>
<path transform="translate(1347,739)" d="m0 0h9l4 1 8 14 12 19 14 22 11 17 1 1 1-73 23-1 1 4-1 117-1 1h-15l-6-5-11-16-16-25-16-24-2-1 1 6v23l-1 43h-20l-3-1v-121z" fill="#364B64"/>
<path transform="translate(1522,739)" d="m0 0h19l3 7 9 27 9 24 14 39 9 24v2l-27-1-3-6-6-17-1-2h-40l-3 8-5 15-2 4-24-2 1-7 9-24 21-59 9-27 1-4z" fill="#374B64"/>
<path transform="translate(1229,739)" d="m0 0h23l3 3 12 35 14 38 9 25 7 19-1 3-26-1-8-22-1-2-6-1h-34l-4 10-5 14-1 1h-25l3-10 18-51 16-44 5-16z" fill="#374B64"/>
<path transform="translate(1033,107)" d="m0 0 7 4 7 8 8 8 7 8 6 9-2 3 1 6 1 3-4 7-16 20-8-2-11-1-10 3-9 5-6 7-4-1-16-7-22-9-2-2-2-16-3-8-3-4 9-11 14-17 9-11 5 1 8 3 9 2 9-1 9-2z" fill="#FDFDFD"/>
<path transform="translate(369,739)" d="m0 0h9l1 48h43v-47l9-1h11l3 1v121h-23l-1-50h-42l-1 49-1 1-22 1-1-1 1-121z" fill="#364B64"/>
<path transform="translate(1229,145)" d="m0 0 5 1 17 9 18 10h2l2-8 4-1 8-6 7-3 5-1h8l10 3 8 6 5 6 4 11 1 8-3 10-6 10h-2v-2l-6 5-12-2-17-3-6-1v3l1 2-4-2-4-4-9 2-18 8-5 2-3 9-4 5-7 5-3 21-2 9 5 2 6 5-2 2-10-7h-10l-3-3 5-1 3-30-6-8-1-3v-9l5-9-2-10-4-14 1-9 2 1 3-8 10-7z" fill="#252B2D"/>
<path transform="translate(887,44)" d="m0 0h9l10 3 8 6 6 9 3 9v10l-5 13-9 8 1 6 8 20 4 9 3 1v2l-10 4-2 1-3-10-5-12-6-14v-2l-13 1-12-5-5-4-3-3-5 1-18 10-20 10v14l-4 10-4 5-7 5-6 1-2 6-1-3-9-1-11-6-7-8-4-9v-12l5-10 9-8 9-3h8l9 2 10 8 16-8 23-12 3-2v-18l4-9 7-8 6-4z" fill="#09252E"/>
<path transform="translate(112,737)" d="m0 0h19l13 3 11 5 1 3v25l-8-6-12-5-10-2h-11l-8 3-4 5 1 9 5 6 5 2 24 4 12 5 9 6 6 9 2 8v13l-3 10-6 9-8 7-10 5-8 2-15 1-16-2-13-4-8-4-2-3 1-27 4 2 4 5 12 7 11 3h14l10-3 6-4 3-7-1-7-4-4-9-3-23-4-10-4-8-6-6-8-3-8v-16l4-11 7-9 9-6z" fill="#364B64"/>
<path transform="translate(1281,196)" d="m0 0 10 2 19 3 6 1 4-4h2l9 15 10 15 2 5 10-3h11l10 3 10 9 5 8 2 7v12l-4 10-9 10-8 4-11 2-12-2-13-6-15 12-16 11-2 3v14l-6 9-6 4-11 2-3 5-4 7h-2l-2 4-3 2-7 15 1 4-1 3h-6v-6l13-29 3-11-5-7-1-4v-7l3-8 7-7 6-2h9l6 3h4l11-8 14-11 7-5-2-11v-14l4-9 4-6 1-2-20-30-7 1-4 1-9-1-9-3-5-5-2-3z" fill="#443B2D"/>
<path transform="translate(761,237)" d="m0 0 4 2 7 12 2 5-10 15-10 13-9 14-1 1h-13l-11 4-4 5-3 9v9l5 8-1 4-8 14-8 13-12 20-5 6-12-3-5-5 1-4-2-3 1-4 11-8 6-7 3-7 1-9-2-11-6-10-8-6-6-4-1-3 2-10 15-3 12-5 11-9 7-11 3-10 1-12 1-2z" fill="#FDFDFD"/>
<path transform="translate(1356,331)" d="m0 0 15 2 10 4 9 7 7 8 5 11 2 12v8l-3 14-5 8-1-2-6 2-4 3h-11l-7-4-22 1-9 3-6-1-7-8-4-5-2-1-3-10-1-22 6-11 9-9 10-6 9-3z" fill="#734F2D"/>
<path transform="translate(264,737)" d="m0 0h17l16 3 5 2v28l-8-5-9-3-6-1h-15l-11 3-8 5-7 9-3 9-1 5v15l3 12 6 10 7 6 11 4h19l10-3 11-6 5-3-1 24-6 5-11 5-14 3h-11l-14-2-14-6-10-8-8-10-6-12-3-14v-23l4-16 6-11 9-10 7-6 11-5 12-3z" fill="#364B64"/>
<path transform="translate(1844,738)" d="m0 0h1v24l-42-1 1 23 32 1v20l-1 1h-32v26l1 7 44 1v14l-1 7h-68v-121l6-1z" fill="#364B64"/>
<path transform="translate(663,202)" d="m0 0h13l11 3 9 5 10 9 6 10 3 6 11-1 9-1-1 6-5 2h-11l-1 2 4 2h-4l-1 14-3 10-4 7-3-2-4 1 2-4-9 9h-6l-1-4 1-4-11-7-10-2h-12l-1-2-4-1-17-1-2-3v-13l-2-3-3-1 1 11 1 8 4 4 6 4 2 2 23 4 8 1 8 9 6 1-2 2h-7l-15-5-7 1-4 1v-2h-5l-5-3-7-2 1 3-1 2-7-11-3-9v-19l3-12 7-11 7-7 14-7z" fill="#433B2D"/>
<path transform="translate(1094,155)" d="m0 0 4 4 7 9 9 10 3 4v2l6-1 7-3 8-2 8 1 10 3 9 5 7 7 5 10 2 6v12l-4 13-7 9-10 7-8 3h-19l-10-4-4 2-10 11-5 2-2 3-7 6-2 3h-2l-2 7-5 4h-3l-1-4 8-11 7-7 9-11 7-9 2-1-2-6-5-11-1-6v-11l2-8 5-9v-5h5l-1-5-4-2-4-6v-2l-3-1-3-5-4-4-5-3-1-2 1-3z" fill="#343430"/>
<path transform="translate(796,237)" d="m0 0h9l5 4 1 2 2-1 2 8 2-1v2l5-1 5-5 5-6 5-1-2 6-6 8-5 4-1 3 7 13 10 4 6 7 1 2v8l-7 8-12 3-5 5-10 11-7 9-10 12-7 9-10 13-4 6 1 11-4 6-8 6-7-1-6-4-4-8 1-8 6-7 2-1 10-1 5-5 9-10 10-13 8-9 11-14 10-14 1-5-1-7 2-3v-7l-6-10-6-1-13 1-5-1-9-2-7 8-10 14-11 16-3 4 3 10 1 3v7l-5 9-5 5-10 4h-9l-2 3-6-2-2-1 1-8-5-8v-9l4-11 6-5 9-3h13l10-15 9-12 8-11 9-2 2-3 3-3v-10h2l3-4z" fill="#463C2E"/>
<path transform="translate(719,760)" d="m0 0h17l10 3 8 6 7 9 4 11 1 7v10l-3 14-6 9-8 7-9 4-4 1h-12l-11-3-8-5-7-8-4-8-2-6-1-7v-8l3-12 4-8 9-10 6-4z" fill="#FDFDFD"/>
<path transform="translate(552,760)" d="m0 0h18l10 4 10 9 6 12 2 10v11l-2 11-6 12-8 7-10 4-6 1h-8l-12-3-6-3-7-6-7-12-2-8v-17l3-10 7-11 8-7z" fill="#FDFDFD"/>
<path transform="translate(753,388)" d="m0 0 4 2 8 1-1 15-1 7v8l10 6 9 10 1 2 25-1 2-13 5-10 7-8 7-5 10-4h15l10 3-4 2-14-1-3 2-7 1-9 4-4 4h-2l-1 5 1 3-5 16-1 4 3 3 6 3 1 3 4 2 7 2h9l15 2v2l11-1 4-5 3-5 1-13-1-8 1-8 4 2 4 10v14l-4 11-7 9-8 7-11 4-11 1-15-4-9-6-6-7-7-12-13 1-10 3-7 14-9 9-6 3-11 1-9-3-9-6-6-9-2-5v-11l4-10 6-7 9-5 8-2v-11l1-17z" fill="#A46A31"/>
<path transform="translate(715,340)" d="m0 0 1 2 6 2 1 2-16 27-10 16-3 5 1 4 6 9 4 10v11l-5 13-10 10-13 6h-13l-12-5-8-6-6-10-3-11 1-11 6-12 8-8 9-5 1-2h2l-1-7 5 2 6 5 12 3 6-8 14-24z" fill="#8A5C2F"/>
<path transform="translate(896,353)" d="m0 0h12l10 8 4 1 1 6 2 4-10 1-4 5-5 3h-6l-6 5-8 11-9 10 1 5 4 6-1 2-1-1-1 8 1 11-1 9-6 9-2 2-8 1-3-1v-2h-9l-11-1-9-1-6-4-4-4-6-3-1-3 5-17 1-4-1-2 2-4h2l2-4 8-4 7-2 5-1 1-1 22 1 10-12 8-11 3-4-1-10 2-7 4-4z" fill="#8B5D2F"/>
<path transform="translate(856,739)" d="m0 0h10v73l1 26 1 1h29v21l-1 1-36 1h-19l-1-1v-121z" fill="#364B64"/>
<path transform="translate(1103,263)" d="m0 0 3 1-10 13-10 11 5 15-1 13-4 7-4 5-10 5-13 1-10-3-9-8-4-10-2-13-9-3-15-6-9-1-4 2h-8l-6-2-5-6-21-1-3-9 24-1 6-7 4-2h9l6 4 6 11 8 4 14 5 5 3 5-1 7-7 6-3 4-1h11l10 4v5l6-3 4-8 2-1 2-3 5-4z" fill="#5E4931"/>
<path transform="translate(961,399)" d="m0 0 1 2-1 7h5l-3 9-17 34-11 20 2 5 7 8v2l13-1 16-1v3l1 4 3 2-27 5-3 2-3 9-7 9-8 5-10 3-12-3-9-6-6-7-4-11 2-12 4-8 7-7 6-3 5-1h14l7-15 11-22 9-17 7-14z" fill="#A66B31"/>
<path transform="translate(926,138)" d="m0 0h9l-1 2 4 6 5 3v2l7 2 3-3 4 4 3 12v13l13 6 1 4 10 2 3 1v2h7l5 2 2 5-5 1-28-11-11-5-7 6-8 5-8 3-5 1-3 10-3 1-4-2-1 2v-13l-11-8-6-10-2-5-1-10 4-13 5-6 5-2 1-2h2z" fill="#252B2D"/>
<path transform="translate(1118,336)" d="m0 0h1v6l-1 6h4l-2 6-4 8 1 5 2 2 13-1 26-5 14-2 3-2 2-5 4-5 4-2h8l6 2 5 8 1 6-4 8-9 6-3 14h-2l-1 8-3-1v2l-4 1-1-1v-7l3-19-2-5-26 4-29 6h-2l-2 10-5 8-7 4-4 1h-9l-7-3-7-6-4-11 1-8 4-9 5-4 5-3 15-1 8-16z" fill="#76512D"/>
<path transform="translate(1269,354)" d="m0 0 2 1-9 21-3 10 6 5 5 10 1 3v12l-3 9-6 8-4 4h-4l-2 5-5-2v-2l-12-3-7-4-4-2v-2l-6-2-5-7v-4h-2v-12l5-9 5-6 10-6 3-1h13l10 2-1-7 8-16z" fill="#8B5D2F"/>
<path transform="translate(1129,525)" d="m0 0 6 1 8 6 7 4v8l-1 3-2 15-2 13-10 5-4 6-1 8 3 9 8 6 1 6 1 23-6-2-14-12-2-4-1-13-4-4-9-5-3-8-1-10 5-5 6-3 6-8 3-7v-9l-2-10-1-4 8-7z" fill="#FDFDFD"/>
<path transform="translate(679,322)" d="m0 0 5 2 4 10 1 9-2 10-6 9-7 6-7 5 1 5v4l-2 2v-2l-5-2 1 7h-2l-1-11-11-4-10-5-5-4-6-9-2-7v-11l3-10 2-3 4 1 2 6 11-1 7 1 9-2 9 1 5 4h2l-1-10z" fill="#74502D"/>
<path transform="translate(828,323)" d="m0 0h19l10 6 5 6 3 10v10l-4 9-7 8-8 4-12 1-9-3-8-6-5-8-2-11 2-11 6-8 7-6z" fill="#73502D"/>
<path transform="translate(1085,518)" d="m0 0h13l11 4 7 3v2l-2 1-10 1-7 3h-8v2h2l2 6-5 4 1 7 2 2v2h-2l2 6 9 6h5l2-5 3-3 4-6 2-6v-7l2-2 3-2 2 4 1 8v9l-5 10-5 6-9 5-1 7 1 10-4 1v-2h-5l-1-11v-2l-12-2-10-6-8-9-2-4-1-6v-12l4-9 7-8 9-6z" fill="#BD7A3C"/>
<path transform="translate(1229,145)" d="m0 0 5 1 17 9 18 10 2 2-1 12 1 6-8 5-11 4-13 5-11-3-4-5-9-30v-5l10-7z" fill="#FDFDFD"/>
<path transform="translate(1330,280)" d="m0 0 3 3v2l2 1-16 13-16 11-2 3v14l-6 9-6 4-11 2-3 5-4 7h-2l-2 4-3 2-7 15 1 4-1 3h-6v-6l13-29 3-11-5-7-1-4v-7l3-8 7-7 6-2h9l6 3h4l11-8 13-10 9-3z" fill="#5E4932"/>
<path transform="translate(839,398)" d="m0 0h15l10 3-4 2-14-1-3 2-7 1-9 4-4 4h-2l-1 5 1 3-5 16-1 4 3 3 6 3 1 3 4 2 7 2h9l15 2v2l11-1 4-5 3-5 1-13-1-8 1-8 4 2 4 10v14l-4 11-7 9-8 7-11 4-11 1-15-4-9-6-6-7-8-14 4-4-4-2 1-11 4-10 8-10 8-6z" fill="#A66B31"/>
<path transform="translate(752,291)" d="m0 0h7l-2 5-6 8 3 10 1 3v7l-5 9-5 5-10 4h-9l-2 3-6-2-2-1 1-8-5-8v-9l4-11 6-5 9-3h13l3-4z" fill="#5F4931"/>
<path transform="translate(1214,157)" d="m0 0 2 4 9 30 3 4 11 3 15-6h2l-2 6-1 5-9 4-2 1-3 9-4 5-7 5-3 21-2 9 5 2 6 5-2 2-10-7h-10l-3-3 5-1 3-30-6-8-1-3v-9l5-9-2-10-4-14 1-9 2 1z" fill="#343533"/>
<path transform="translate(1312,364)" d="m0 0 2 1 1 18 1 7 2 1-1 2 4 2 8 10 4 2 5-1 9-2 20-1 7 4h11l5-4h5l1 3-11 11-12 6-13 2-13-1-13-4-2 5-10 15-7 10-1-2 3-5-3 1v-11l7-10 4-6v-5l-7-8-6-12-1-5v-20z" fill="#8C5D2F"/>
<path transform="translate(711,146)" d="m0 0h12l8 4 6 8 2 7v6l-2 3h-3v2h-2l-1 5h-2l1 4-8 4h-9l-9-4-6-7-2-4v-13l4-8 8-6z" fill="#242B2D"/>
<path transform="translate(1185,347)" d="m0 0h8l6 2 5 8 1 6-4 8-9 6-3 14h-2l-1 8-3-1v2l-4 1-1-1v-7l3-19-2-5-26 4-23 5h-5v-2l-4-1-1-4h-2l1-2 13-1 26-5 14-2 3-2 2-5 4-5z" fill="#75512D"/>
<path transform="translate(1184,290)" d="m0 0 3 1 1 4-3 3h-2v2l-11 4-15 6-5 4-3 9-7 3-8 2-10 19-6 2-1-5 3-12 4-7-1-9-1-1 1-8 3-5 7-4h9l4 3h8l13-5z" fill="#614A31"/>
<path transform="translate(1353,230)" d="m0 0h11l10 3 10 9 5 8 2 10-9 12-5 8-4 4h-5l-1-5 4-9-1-12-4-5-5-3-10-4-9 2-3-2 1-1-3-1v-2l7-1v-6l-2-1z" fill="#51432F"/>
<path transform="translate(1925,759)" d="m0 0h14l11 2 6 4 2 4v13l-3 5-6 5-9 3h-11l-4-1-1-2v-32z" fill="#FDFDFD"/>
<path transform="translate(649,287)" d="m0 0 6 2 7 4 17-1 6 1-3 2-9 2h-6l-1 12 9 6 7 6v2l-3 1 1 9h-4l-4-3-9-1-9 2-11-1-7 1-3-5v-2l-2-1 2-4 9-7 6-2 9-1 1-12-6-4v-2l-4-1z" fill="#5F4931"/>
<path transform="translate(805,323)" d="m0 0h5l-3 5-11 13-7 9-10 13-4 6 1 11-4 6-8 6-7-1-6-4-4-8 1-8 6-7 2-1 10-1 5-5 9-10 10-13 5-2z" fill="#76512D"/>
<path transform="translate(820,259)" d="m0 0 7 7 3 6 10 4 6 7 1 2v8l-7 8-12 3-5 5-10 11-2 3-7 2-10 9-3 1 2-4 9-11 14-18 4-7-1-10 2-3 1-7v-4l-1-4-2-2z" fill="#52442F"/>
<path transform="translate(650,394)" d="m0 0 3 1-6 7-2 7 2 14 5 6 6 4 2 2 1 5 7 6 6 2 10-1 7-4 5-1-3 6-5 4-11 5h-13l-12-5-8-6-6-10-3-11 1-11 6-12z" fill="#A46A31"/>
<path transform="translate(988,264)" d="m0 0h9l6 4 6 11 9 5 2 5-5 1-2-1v2l-12-1-4 2h-8l-6-2-5-6-21-1-3-9 24-1 6-7z" fill="#534430"/>
<path transform="translate(1069,280)" d="m0 0 6 1 4 3v4l3 1-4 1-1-5h-5l-4 3 1 6 3 7 3 9 2 8 3 1-3 2-7 1-7-4-2-5-6-5v-2l-3 2-2 7-6-1-1-1-1-11-2-4v-4l9-7 7-1 9-1v-2l4-1z" fill="#51442F"/>
<path transform="translate(1092,358)" d="m0 0 9 3-1 5-7 3-4-1-1 2h-2l-2 5-1 4 2 5 7 3 4 1h15l6-2 1-3 3-1-1 7-5 8-7 4-4 1h-9l-7-3-7-6-4-11 1-8 4-9 5-4z" fill="#8C5D2F"/>
<path transform="translate(1281,196)" d="m0 0 10 2 19 3 6 1 4-4h2l9 15 10 15v7l-6 3-20-30-7 1-4 1-9-1-9-3-5-5-2-3z" fill="#333432"/>
<path transform="translate(926,209)" d="m0 0 1 3-4 23v4l12 6 10 9 2 4-12-1-1-3-6-2-1-3-3-3-1-2h-15l-13 2-10 1 2-4 12-5 14-2 4-26 9 1z" fill="#423B31"/>
<path transform="translate(851,150)" d="m0 0 9 1 5 3 3 6v8l-3 5-6 5-7 1-8-4-4-6v-9l4-6 4-3z" fill="#252C2E"/>
<path transform="translate(1357,230)" d="m0 0h7l10 3 10 9 5 8 1 7-3-1-2 7-5 5h-2l-2-13-4-7-5-2-8-2-3-2v-2l-3-1 2-3z" fill="#433B2E"/>
<path transform="translate(1239,773)" d="m0 0h2l6 16 7 23-1 1h-23l-3-1 3-10z" fill="#FDFDFD"/>
<path transform="translate(1527,774)" d="m0 0 3 2 9 27 2 9-3 1h-22l-1-4 9-27z" fill="#FDFDFD"/>
<path transform="translate(625,242)" d="m0 0 3 3v10l2 5 9 6 2 2 23 4 8 1 8 9 6 1-2 2h-7l-15-5-7 1-4 1v-2h-5l-5-3-7-2 1 3-1 2-7-11-3-9v-16z" fill="#443B2D"/>
<path transform="translate(1130,522)" d="m0 0 7 1 12 8 4 3 18-1 4 3-12 2-3 2-6 37h-2v3l-5-1-1-2v-15l2-15 1-3v-8l-9-5-7-5-6-1v-2z" fill="#C27D3D"/>
<path transform="translate(942,371)" d="m0 0 6 1 7 14 10 8 7 2h17l7-3 10-6h3l1 3-9 9-12 5-9 1-12-2-1 5-6 1-1-1 1-7 1-2-4-2-7-7-6-12-2-5z" fill="#8C5D2F"/>
<path transform="translate(950,293)" d="m0 0h2l-3 9-7 9-11 8-6 3-16 2-11-1-12-6-10-9-6-10v-3l3 1 5 8 6 5 10 4 6 3h16l12-3 8-5 3-1 2-4 3-3h2l2-5z" fill="#614A31"/>
<path transform="translate(1242,479)" d="m0 0 1 4-1 12 2 16 4 8 10 7 10 3 20-1h5l2 5-8 3-6 1h-13l-10-3-9-7-6-7-4-8-2-8v-12l4-12z" fill="#BF7C3C"/>
<path transform="translate(1187,391)" d="m0 0h1l-1 10-10 47-5 2h-5l2-14 8-39 3 3h3v-2h2z" fill="#A76C32"/>
<path transform="translate(1058,279)" d="m0 0h11v3l-4 1v2l-7 2h-7l-6 4-3 3-6 1-9-4h-3l-1 3 9 2 5 5 2 9 3 11 5 5 6 2 10 1h13l5-4 3 1-9 6-10 2-10-1-7-3-8-7-4-10-2-13-9-3-12-5v-3h5v-2-3l10 3 8 4 5-1 7-7 6-3z" fill="#5E4933"/>
<path transform="translate(715,340)" d="m0 0 1 2 6 2 1 2-16 27-2 3-5 1-4 8-3 7h-6l-1-5 4-5 14-24z" fill="#79532D"/>
<path transform="translate(663,202)" d="m0 0h13l11 3 9 5 10 9 5 8-2 1-3-5-9-3-9-4-17-2-2-1-10 1-2-1v-2l6-2-1-3h-8l1-2z" fill="#343533"/>
<path transform="translate(1296,328)" d="m0 0 1 3-3 6-5 3-11 2-3 5-4 7h-2l-2 4-3 2-7 15 1 4-1 3h-6v-6l13-29 3-11-2-3 1-4 1 3h2l3 4 8-1 13-1z" fill="#75502D"/>
<path transform="translate(1165,362)" d="m0 0h6l5 4 2 3-25 4-23 5h-5v-2l-4-1-1-4h-2l1-2 13-1 26-5z" fill="#7D552E"/>
<path transform="translate(896,353)" d="m0 0h12l3 3h-2l1 2v7l-10 10h-2v2l-8 7-5 2 4-7v-10l-1-4 2-7 4-4z" fill="#734F2D"/>
<path transform="translate(912,468)" d="m0 0h11v1l-10 1-9 6-7 10-2 6-1 12 5 9 5 4 7 3 11 2v2l2 1-6 1-13-4-8-6-6-8-3-9 2-12 4-8 7-7 6-3z" fill="#BF7B3C"/>
<path transform="translate(1330,280)" d="m0 0 3 3v2l2 1-16 13-13 9h-8l-1 2-2-5 12-9 13-10 9-3z" fill="#554530"/>
<path transform="translate(906,293)" d="m0 0 8 1 7-1 4 3-2 1 9 3 4 1 3 1-5 3-4-1-1-1h-5l-4 2-1 2-7 2h-5l-9-6-4-3 1-1h9l4 1z" fill="#5E4830"/>
<path transform="translate(1135,243)" d="m0 0h7l4 1v2l6-1h11v3l-7 4-6 2h-19l-10-4-1-2 3-3 12-1z" fill="#453C2E"/>
<path transform="translate(1197,351)" d="m0 0 5 2 3 9-3 7-4 4-6 4-3 14h-2l-1 8-3-1v2l-4 1-1-1v-7l2-10 7 1 1-10-1-2 9-5 1-6z" fill="#8B5D2F"/>
<path transform="translate(753,388)" d="m0 0 4 2 8 1-1 15-1 7v8l2 1-1 4-7-1-2-2-1-6 1-25z" fill="#956231"/>
<path transform="translate(970,484)" d="m0 0 3 1v2l1 4 3 2-27 5-4 2-2-6 1-8z" fill="#C07C3C"/>
<path transform="translate(1214,157)" d="m0 0 2 4 7 24-1 6 1 4-5 1-3-3-6-21 1-9 2 1z" fill="#272D30"/>
<path transform="translate(851,150)" d="m0 0 9 1 5 3 3 6v8l-3 5h-3l1-5-8-1-3-8-4-5v-3z" fill="#0B262F"/>
<path transform="translate(737,180)" d="m0 0 5 2 13 10 11 7 2 2v9l-7-6-12-8-14-10-4-2 3-3z" fill="#262C2E"/>
<path transform="translate(811,342)" d="m0 0h1l1 7 1 4 3 8 3 3 7 2 5 3 16 2 3 3-5 2-12 1-9-3-8-6-5-8-2-11z" fill="#8D5E2F"/>
<path transform="translate(791,154)" d="m0 0h6l4 1v28l-1 3-6 1-1-1-1-30z" fill="#262E32"/>
<path transform="translate(926,209)" d="m0 0 1 3-4 23h-2l-1 3h-7l3-22 1-6 9 1z" fill="#333635"/>
<path transform="translate(1313,434)" d="m0 0h1l1 9h2l-3 9-7 10-6 2-4-3 2-6z" fill="#BE7B3C"/>
<path transform="translate(1325,417)" d="m0 0 1 3h2v2h3l1 3-10 15-7 10-1-2 3-5-3 1v-11l7-10z" fill="#A86C32"/>
<path transform="translate(694,401)" d="m0 0 4 1 6 11 1 4v11l-4 9h-2l-1 2-2-5 1-6v-18l-3-6z" fill="#A36931"/>
<path transform="translate(816,302)" d="m0 0 1 4v1l5 1-2 4-9 11-7 2-10 9-3 1 2-4 9-11z" fill="#624A31"/>
<path transform="translate(1272,346)" d="m0 0h2l-1 5-2 3h-2l-2 4-3 2-7 15 1 4-1 3h-6v-6l13-29h7z" fill="#76512D"/>
<path transform="translate(954,274)" d="m0 0h25l1 11-2-1-21-1z" fill="#6E5032"/>
<path transform="translate(990,510)" d="m0 0 5 2 9 5 9 2 19 1 1 2 3 2-5 1h-21l-12-5-8-7z" fill="#BF7B3C"/>
<path transform="translate(1030,298)" d="m0 0 6 1 3 10 3 12 5 5 6 2 10 1h13l5-4 3 1-9 6-10 2-10-1-7-3-8-7-4-10-2-13z" fill="#77522E"/>
<path transform="translate(1184,290)" d="m0 0 3 1 1 4-3 3h-2v2l-11 4-9 3 1-3 2-1-3-3 1-3z" fill="#604A32"/>
<path transform="translate(1124,326)" d="m0 0 6 1v2h2v-2l2 1-10 19-6 2-1-5 3-12z" fill="#694D31"/>
<path transform="translate(805,323)" d="m0 0h5l-3 5-11 13-4 6h-2l1-5-9 6-1-3 6-7 4-4 5-3z" fill="#76512D"/>
<path transform="translate(1066,169)" d="m0 0h2l1 3-9 11-2 3-8 3-2 1-1-4h2v-5l8-11 4 1z" fill="#262D30"/>
<path transform="translate(1110,256)" d="m0 0 2 1-5 6-5 2-2 3-7 6-2 3h-2l-2 7-5 4h-3l-1-4 8-11 6-5h4l6-7 5-4z" fill="#3E392F"/>
<path transform="translate(1094,155)" d="m0 0 4 4 7 9 9 10 5 8-3 5-4 2 1-4h2l-1-5-4-2-4-6v-2l-3-1-3-5-4-4-5-3-1-2 1-3z" fill="#272D30"/>
<path transform="translate(752,291)" d="m0 0h7l-2 5-6 8v5l-4 1-5-10 5-6z" fill="#56452F"/>
<path transform="translate(649,287)" d="m0 0 6 2 7 4 17-1 6 1-3 2-15 3h-8l-5-4-2-1v-2l-4-1z" fill="#5E4931"/>
<path transform="translate(922,363)" d="m0 0h21v1l-6 1 4 2v2l4 2h-23v-3l-1-4z" fill="#77522D"/>
<path transform="translate(1112,246)" d="m0 0h3l2 6-4 4-7 3-8 7-2 3h-4l2-5 13-12 2-4z" fill="#272C2D"/>
<path transform="translate(1180,383)" d="m0 0 7 1 2-1v8h-2l-1 8-3-1v2l-4 1-1-1v-7z" fill="#8D5E2F"/>
<path transform="translate(1064,536)" d="m0 0 2 1v16l4 11 7 8 2 4-6-3-8-9-2-4-1-6v-12z" fill="#E18E43"/>
<path transform="translate(828,323)" d="m0 0h19l10 6 5 6 2 7-2 1-5-6-1-3 1-2h-2l-3-4-11-1-6-1h-10v-2z" fill="#584733"/>
<path transform="translate(1018,284)" d="m0 0 10 3 11 6v2l-5-1-7-3h-3l-1 3 9 2 1 2-8-1-12-5v-3h5v-2z" fill="#654C32"/>
<path transform="translate(1269,354)" d="m0 0 2 1-9 21-4 9-4-2 2-1 1-4-1-3 8-16z" fill="#905F2F"/>
<path transform="translate(1215,247)" d="m0 0 1 3 8-1v6l-1 2 5 2 6 5-2 2-10-7h-10l-3-3 5-1z" fill="#36393A"/>
<path transform="translate(1224,235)" d="m0 0h1v13l-6 2h-3v-12h2v-2z" fill="#272D2F"/>
<path transform="translate(1196,302)" d="m0 0 4 1 20 4 4 3-3 1h-10l-9-3-6-4z" fill="#684D30"/>
<path transform="translate(1258,360)" d="m0 0 2 3 1 4-4 8 1 4-1 3h-6v-6z" fill="#7B542D"/>
<path transform="translate(708,183)" d="m0 0h19v2l2 1-7 3h-9l-6-2z" fill="#323534"/>
<path transform="translate(790,334)" d="m0 0h3v4l3-1v4l-4 6h-2l1-5-9 6-1-3 6-7z" fill="#6E5031"/>
<path transform="translate(1103,263)" d="m0 0 3 1-10 13-9 10-3-1 3-5 2-4 2-1 2-3 5-4z" fill="#5C482F"/>
<path transform="translate(659,298)" d="m0 0h8l-1 12h-8l-1-3z" fill="#363633"/>
<path transform="translate(790,154)" d="m0 0 3 2v30l-3 2z" fill="#353C42"/>
<path transform="translate(771,374)" d="m0 0 5 2-1 6-5 6-4 1-1-5 2-2 3-7z" fill="#8D5E2F"/>
<path transform="translate(1091,273)" d="m0 0 1 3-3 1-2 7-5 4h-3l-1-4 6-8z" fill="#433A2D"/>
<path transform="translate(890,387)" d="m0 0 3 1-8 10-5 5-2-2 3-8 6-5z" fill="#AB6E33"/>
<path transform="translate(1081,423)" d="m0 0h10l7 3-1 2-4-1-13 3-4 2 2-4 1-4z" fill="#8D5E2F"/>
<path transform="translate(1330,287)" d="m0 0 3 1-17 13-4 2 2-5 5-6h2l1-3z" fill="#735230"/>
<path transform="translate(883,246)" d="m0 0 1 2 7 1-2 4-6 4-4-1v-3l-3 2 2-4z" fill="#443D32"/>
<path transform="translate(1094,155)" d="m0 0 4 4 7 9 2 3-2 2-1-3-4-2-4-4-5-3-1-2 1-3z" fill="#272E32"/>
<path transform="translate(1142,82)" d="m0 0 15 8 11 7 1 2-7-1-17-11-3-2z" fill="#374C65"/>
<path transform="translate(1321,202)" d="m0 0 4 1 10 16 2 4-2 2-8-11-6-9z" fill="#403C35"/>
<path transform="translate(1285,150)" d="m0 0h2v5h-2l-2 4-5 3h-5v-5l4-1z" fill="#333534"/>
<path transform="translate(1123,474)" d="m0 0 1 4-1 14v9l-3 3-1-4 1-18z" fill="#C37E3D"/>
<path transform="translate(1271,339)" d="m0 0h4v2l3 1-4 5-9 1 1-5z" fill="#614A31"/>
<path transform="translate(1e3 270)" d="m0 0 4 1 4 8 5 4h-6v-2l-6-1-2-7z" fill="#634B31"/>
<path transform="translate(1128,318)" d="m0 0 5 4 3 3v2h-4v2h-2v-2l-6-1 2-6z" fill="#524531"/>
<path transform="translate(1030,298)" d="m0 0 6 1 3 10 2 11-2 1-4-11-1-10z" fill="#8A5C2F"/>
<path transform="translate(928,194)" d="m0 0 10 1v4l-9 2-2 4-1-10z" fill="#333737"/>
<path transform="translate(1249,144)" d="m0 0 5 2 18 10-4 2-6-4-11-6-3-3z" fill="#354A62"/>
<path transform="translate(1024,290)" d="m0 0 6 1 9 5v2l-13-2-3-2z" fill="#53442F"/>
<path transform="translate(1183,348)" d="m0 0 4 2-3 4-1 6h-2l-1-2h-4l1-4 4-5z" fill="#8D5E2F"/>
<path transform="translate(1341,289)" d="m0 0 17 2 3 1h5l1 2-8 1-12-2-6-3z" fill="#6E4F2F"/>
<path transform="translate(756,363)" d="m0 0 2 1-4 5-2 5-3 8-2-3 1-8 6-7z" fill="#8E5E2F"/>
<path transform="translate(671,292)" d="m0 0h10l4 2-12 3h-3v-2h-6l1-2z" fill="#604A34"/>
<path transform="translate(1293,205)" d="m0 0h12l5 2-4 3h-7l-4-1v-2h-2z" fill="#364B64"/>
<path transform="translate(919,199)" d="m0 0 3 4v3h4l1 3-3 3-5-2-1 2z" fill="#272E30"/>
<path transform="translate(989,287)" d="m0 0 9 1 3 2-4 2h-8l-6-2 2-2z" fill="#433E35"/>
<path transform="translate(1330,280)" d="m0 0 3 3v2l2 1-9 3-5 1-1-4 9-3z" fill="#56462F"/>
<path transform="translate(1209,256)" d="m0 0h10l7 2 8 6-2 2-10-7h-10z" fill="#423D35"/>
<path transform="translate(1318,287)" d="m0 0h2l1 3-10 8h-4l1-3z" fill="#433C31"/>
<path transform="translate(902,153)" d="m0 0 2 4-2 6-1 11-2 2-1-10z" fill="#34383A"/>
<path transform="translate(1059,119)" d="m0 0 7 6 8 7 2 2-2 2-10-9-6-7z" fill="#374C65"/>
<path transform="translate(1016,366)" d="m0 0h1l-1 11-1 4h-3l-1-7z" fill="#8F5F2F"/>
<path transform="translate(700,376)" d="m0 0 4 1-7 12-2-1 1-5z" fill="#956230"/>
<path transform="translate(647,368)" d="m0 0 8 1 4 3v3l-11-3z" fill="#8A5C2F"/>
<path transform="translate(919,198)" d="m0 0 5 1 3 1v6l-3 2v-2h-2z" fill="#07242C"/>
<path transform="translate(743,472)" d="m0 0 16 3-1 3-10-1-4-2z" fill="#BC793B"/>
<path transform="translate(1132,368)" d="m0 0h6l-4 2-11 4h-3v-3h-2l1-2z" fill="#B27235"/>
<path transform="translate(979,494)" d="m0 0h3l6 12-2 2-5-8z" fill="#BE7A3B"/>
<path transform="translate(659,378)" d="m0 0 10 1-2 5-1-2-5-2 1 7h-2z" fill="#5B4B3A"/>
<path transform="translate(857,330)" d="m0 0 5 5 2 7-2 1-5-6-1-3z" fill="#584836"/>
<path transform="translate(751,317)" d="m0 0h4v7l-3 4-2-4v-6z" fill="#73502E"/>
<path transform="translate(980,277)" d="m0 0 4 1 2 5v3l-5 1-1-1-1-8z" fill="#463C2D"/>
<path transform="translate(1313,493)" d="m0 0h1v13l-2 8-2-2v-6l2-6z" fill="#CC833F"/>
<path transform="translate(1103,585)" d="m0 0h1l1 10-4 1v-2l-4-1 1-4 4 2z" fill="#C07C3C"/>
<path transform="translate(1086,397)" d="m0 0h7l5 3 6 1v1h-9l-7-3z" fill="#A46A31"/>
<path transform="translate(1170,364)" d="m0 0 5 1 3 4-12 1 3-1z" fill="#936130"/>
<path transform="translate(728,337)" d="m0 0 9 1 2 3-6 1-6-2z" fill="#78522D"/>
<path transform="translate(1126,304)" d="m0 0 1 4-2 8-3-1 1-8z" fill="#6F4F31"/>
<path transform="translate(713,314)" d="m0 0h1l3 11-3 3-2-2v-9z" fill="#6D4F33"/>
<path transform="translate(960,176)" d="m0 0 12 5v2l-8-1-5-3z" fill="#374C65"/>
<path transform="translate(1097,584)" d="m0 0h5l1 1v10l-2-4-4-1z" fill="#A46A31"/>
<path transform="translate(1192,156)" d="m0 0h9l3 4h-8l-4-1z" fill="#374C65"/>
<path transform="translate(727,444)" d="m0 0h1l3 12 1 5-3-1-2-5z" fill="#BE7B3B"/>
<path transform="translate(1251,468)" d="m0 0 2 1-4 6-4 4h-2l2-5z" fill="#C27D3D"/>
<path transform="translate(648,310)" d="m0 0h6l-2 4-7 1-2-2h2v-2z" fill="#724F2E"/>
<path transform="translate(1165,300)" d="m0 0 7 1v3l-9 3 1-3 2-1-2-2z" fill="#4F4433"/>
<path transform="translate(1091,268)" d="m0 0 4 2-5 5-6 1 6-7z" fill="#353837"/>
<path transform="translate(1097,162)" d="m0 0 8 6 2 3-2 2-1-3-4-2-3-3z" fill="#2F3231"/>
<path transform="translate(1160,302)" d="m0 0 3 1-2 5-6 2 1-5h3z" fill="#55452E"/>
<path transform="translate(928,364)" d="m0 0h15l1 5h-3l-1-2-12-2z" fill="#5F4931"/>
<path transform="translate(948,351)" d="m0 0h2l-1 7-3 5h-2l3-10z" fill="#8F5F2F"/>
<path transform="translate(1130,370)" d="m0 0 4 1-7 3v2l3 2h-5v-2h-3l1-3z" fill="#8B5D2F"/>
<path transform="translate(1352,290)" d="m0 0 9 2h5l1 2-8 1v-2l-8-1z" fill="#5B4936"/>
<path transform="translate(661,295)" d="m0 0h9v2l-3 1h-8v-2z" fill="#74502D"/>
<path transform="translate(1270,171)" d="m0 0 2 1 1 9-3 1-1-9z" fill="#343839"/>
<path transform="translate(1109,246)" d="m0 0 1 2-4 6-5 5-2-1 7-8z" fill="#3C3C3A"/>
<path transform="translate(1328,341)" d="m0 0 2 2-8 8-2-2z" fill="#8E5F2F"/>
<path transform="translate(1031,239)" d="m0 0 5 1v3h-9l1-3z" fill="#453B2D"/>
</svg>
